<mxfile host="65bd71144e">
    <diagram id="A6d-6aBbG_gtAp9SD7cN" name="第 1 页">
        <mxGraphModel dx="1160" dy="479" grid="1" gridSize="10" guides="1" tooltips="1" connect="1" arrows="1" fold="1" page="1" pageScale="1" pageWidth="827" pageHeight="1169" math="0" shadow="0">
            <root>
                <mxCell id="0"/>
                <mxCell id="1" parent="0"/>
                <mxCell id="RoAYnVofiYMvQ8LHtAUV-84" value="" style="rounded=1;whiteSpace=wrap;html=1;" parent="1" vertex="1">
                    <mxGeometry x="431" y="1090" width="160" height="200" as="geometry"/>
                </mxCell>
                <mxCell id="RoAYnVofiYMvQ8LHtAUV-79" value="" style="rounded=1;whiteSpace=wrap;html=1;" parent="1" vertex="1">
                    <mxGeometry x="440" y="900" width="151" height="180" as="geometry"/>
                </mxCell>
                <mxCell id="2" value="管理员" style="shape=umlActor;verticalLabelPosition=bottom;verticalAlign=top;html=1;outlineConnect=0;" parent="1" vertex="1">
                    <mxGeometry x="70" y="130" width="30" height="60" as="geometry"/>
                </mxCell>
                <mxCell id="3" value="" style="endArrow=classic;html=1;" parent="1" edge="1">
                    <mxGeometry width="50" height="50" relative="1" as="geometry">
                        <mxPoint x="100" y="160" as="sourcePoint"/>
                        <mxPoint x="240" y="160" as="targetPoint"/>
                    </mxGeometry>
                </mxCell>
                <mxCell id="4" value="&lt;font style=&quot;font-size: 15px;&quot;&gt;后台管理系统&lt;/font&gt;" style="whiteSpace=wrap;html=1;aspect=fixed;" parent="1" vertex="1">
                    <mxGeometry x="230" y="90" width="170" height="170" as="geometry"/>
                </mxCell>
                <mxCell id="7" value="发布接口&lt;br&gt;下线接口&lt;br&gt;接口设置" style="rounded=1;whiteSpace=wrap;html=1;" parent="1" vertex="1">
                    <mxGeometry x="255" y="100" width="120" height="60" as="geometry"/>
                </mxCell>
                <mxCell id="8" value="" style="endArrow=classic;html=1;fontSize=15;exitX=1;exitY=0.5;exitDx=0;exitDy=0;" parent="1" source="7" target="9" edge="1">
                    <mxGeometry width="50" height="50" relative="1" as="geometry">
                        <mxPoint x="430" y="140" as="sourcePoint"/>
                        <mxPoint x="480" y="130" as="targetPoint"/>
                    </mxGeometry>
                </mxCell>
                <mxCell id="9" value="数据库" style="shape=cylinder3;whiteSpace=wrap;html=1;boundedLbl=1;backgroundOutline=1;size=15;fontSize=15;" parent="1" vertex="1">
                    <mxGeometry x="510" y="90" width="90" height="80" as="geometry"/>
                </mxCell>
                <mxCell id="10" value="统计分析" style="whiteSpace=wrap;html=1;aspect=fixed;fontSize=15;" parent="1" vertex="1">
                    <mxGeometry x="410" y="180" width="80" height="80" as="geometry"/>
                </mxCell>
                <mxCell id="11" value="用户" style="shape=umlActor;verticalLabelPosition=bottom;verticalAlign=top;html=1;outlineConnect=0;fontSize=15;" parent="1" vertex="1">
                    <mxGeometry x="70" y="330" width="30" height="60" as="geometry"/>
                </mxCell>
                <mxCell id="14" value="&lt;font style=&quot;font-size: 15px;&quot;&gt;用户前台&lt;br&gt;（接口文档、在线调用）&lt;/font&gt;" style="whiteSpace=wrap;html=1;aspect=fixed;" parent="1" vertex="1">
                    <mxGeometry x="120" y="320" width="170" height="170" as="geometry"/>
                </mxCell>
                <mxCell id="15" value="浏览接口&lt;br&gt;开通接口（100次）&lt;br&gt;调用接口" style="rounded=1;whiteSpace=wrap;html=1;" parent="1" vertex="1">
                    <mxGeometry x="145" y="290" width="120" height="60" as="geometry"/>
                </mxCell>
                <mxCell id="17" value="" style="rounded=0;whiteSpace=wrap;html=1;fontSize=15;" parent="1" vertex="1">
                    <mxGeometry x="290" y="350" width="240" height="250" as="geometry"/>
                </mxCell>
                <mxCell id="18" value="&lt;font style=&quot;font-size: 12px;&quot;&gt;API 网关（Kong, Nginx, Gateway）&lt;/font&gt;" style="text;html=1;strokeColor=none;fillColor=none;align=center;verticalAlign=middle;whiteSpace=wrap;rounded=0;fontSize=15;" parent="1" vertex="1">
                    <mxGeometry x="300" y="360" width="220" height="30" as="geometry"/>
                </mxCell>
                <mxCell id="19" value="&lt;font style=&quot;font-size: 10px;&quot;&gt;统计次数&lt;/font&gt;" style="whiteSpace=wrap;html=1;aspect=fixed;fontSize=12;" parent="1" vertex="1">
                    <mxGeometry x="300" y="400" width="50" height="50" as="geometry"/>
                </mxCell>
                <mxCell id="20" value="&lt;font style=&quot;font-size: 10px;&quot;&gt;计费&lt;/font&gt;" style="whiteSpace=wrap;html=1;aspect=fixed;fontSize=12;" parent="1" vertex="1">
                    <mxGeometry x="364" y="400" width="50" height="50" as="geometry"/>
                </mxCell>
                <mxCell id="21" value="&lt;font style=&quot;font-size: 10px;&quot;&gt;接口保护&lt;/font&gt;" style="whiteSpace=wrap;html=1;aspect=fixed;fontSize=12;" parent="1" vertex="1">
                    <mxGeometry x="430" y="400" width="50" height="50" as="geometry"/>
                </mxCell>
                <mxCell id="22" value="&lt;font style=&quot;font-size: 10px;&quot;&gt;鉴权认证&lt;/font&gt;" style="whiteSpace=wrap;html=1;aspect=fixed;fontSize=12;" parent="1" vertex="1">
                    <mxGeometry x="300" y="460" width="50" height="50" as="geometry"/>
                </mxCell>
                <mxCell id="23" value="&lt;font style=&quot;font-size: 10px;&quot;&gt;用户登录&lt;/font&gt;" style="whiteSpace=wrap;html=1;aspect=fixed;fontSize=12;" parent="1" vertex="1">
                    <mxGeometry x="364" y="460" width="50" height="50" as="geometry"/>
                </mxCell>
                <mxCell id="24" value="&lt;font style=&quot;font-size: 10px;&quot;&gt;日志&lt;/font&gt;" style="whiteSpace=wrap;html=1;aspect=fixed;fontSize=12;" parent="1" vertex="1">
                    <mxGeometry x="430" y="460" width="50" height="50" as="geometry"/>
                </mxCell>
                <mxCell id="25" value="&lt;font style=&quot;font-size: 10px;&quot;&gt;跨域&lt;/font&gt;" style="whiteSpace=wrap;html=1;aspect=fixed;fontSize=12;" parent="1" vertex="1">
                    <mxGeometry x="300" y="520" width="50" height="50" as="geometry"/>
                </mxCell>
                <mxCell id="26" value="第三方调用的 SDK（工具类，别人给你更方便使用接口的源码包）" style="rounded=0;whiteSpace=wrap;html=1;fontSize=10;" parent="1" vertex="1">
                    <mxGeometry x="145" y="515" width="120" height="60" as="geometry"/>
                </mxCell>
                <mxCell id="28" value="" style="edgeStyle=segmentEdgeStyle;endArrow=classic;html=1;curved=0;rounded=0;endSize=8;startSize=8;fontSize=10;exitX=1;exitY=0.5;exitDx=0;exitDy=0;entryX=0.5;entryY=1;entryDx=0;entryDy=0;entryPerimeter=0;" parent="1" source="15" target="9" edge="1">
                    <mxGeometry width="50" height="50" relative="1" as="geometry">
                        <mxPoint x="510" y="320" as="sourcePoint"/>
                        <mxPoint x="560" y="270" as="targetPoint"/>
                        <Array as="points">
                            <mxPoint x="560" y="320"/>
                            <mxPoint x="560" y="170"/>
                        </Array>
                    </mxGeometry>
                </mxCell>
                <mxCell id="31" value="" style="edgeStyle=segmentEdgeStyle;endArrow=classic;html=1;curved=0;rounded=0;endSize=8;startSize=8;fontSize=10;" parent="1" edge="1">
                    <mxGeometry width="50" height="50" relative="1" as="geometry">
                        <mxPoint x="530" y="380" as="sourcePoint"/>
                        <mxPoint x="560" y="320" as="targetPoint"/>
                    </mxGeometry>
                </mxCell>
                <mxCell id="32" value="&lt;font style=&quot;font-size: 10px;&quot;&gt;随机头像&lt;br&gt;&lt;/font&gt;" style="text;html=1;strokeColor=none;fillColor=none;align=center;verticalAlign=middle;whiteSpace=wrap;rounded=0;fontSize=10;" parent="1" vertex="1">
                    <mxGeometry x="510" y="40" width="90" height="30" as="geometry"/>
                </mxCell>
                <mxCell id="33" value="&lt;font style=&quot;font-size: 20px;&quot;&gt;调用流程&lt;/font&gt;" style="rounded=1;whiteSpace=wrap;html=1;fontSize=10;" parent="1" vertex="1">
                    <mxGeometry x="206.5" y="635" width="365" height="60" as="geometry"/>
                </mxCell>
                <mxCell id="34" value="&lt;font style=&quot;font-size: 12px;&quot;&gt;前端&lt;/font&gt;" style="whiteSpace=wrap;html=1;aspect=fixed;fontSize=20;" parent="1" vertex="1">
                    <mxGeometry x="99" y="725" width="80" height="80" as="geometry"/>
                </mxCell>
                <mxCell id="35" value="&lt;font style=&quot;font-size: 12px;&quot;&gt;接口平台后端&lt;/font&gt;" style="whiteSpace=wrap;html=1;aspect=fixed;fontSize=20;" parent="1" vertex="1">
                    <mxGeometry x="349" y="725" width="80" height="80" as="geometry"/>
                </mxCell>
                <mxCell id="36" value="&lt;font style=&quot;font-size: 12px;&quot;&gt;模拟接口&lt;/font&gt;" style="whiteSpace=wrap;html=1;aspect=fixed;fontSize=20;" parent="1" vertex="1">
                    <mxGeometry x="599" y="725" width="80" height="80" as="geometry"/>
                </mxCell>
                <mxCell id="37" value="" style="endArrow=classic;html=1;fontSize=12;entryX=0;entryY=0.5;entryDx=0;entryDy=0;" parent="1" target="35" edge="1">
                    <mxGeometry width="50" height="50" relative="1" as="geometry">
                        <mxPoint x="179" y="765" as="sourcePoint"/>
                        <mxPoint x="229" y="715" as="targetPoint"/>
                    </mxGeometry>
                </mxCell>
                <mxCell id="38" value="" style="endArrow=classic;html=1;fontSize=12;entryX=0;entryY=0.5;entryDx=0;entryDy=0;" parent="1" edge="1">
                    <mxGeometry width="50" height="50" relative="1" as="geometry">
                        <mxPoint x="429" y="764.58" as="sourcePoint"/>
                        <mxPoint x="599" y="764.58" as="targetPoint"/>
                    </mxGeometry>
                </mxCell>
                <mxCell id="45" value="统一后端调用" style="text;html=1;strokeColor=none;fillColor=none;align=center;verticalAlign=middle;whiteSpace=wrap;rounded=0;fontSize=12;" parent="1" vertex="1">
                    <mxGeometry x="20" y="750" width="60" height="30" as="geometry"/>
                </mxCell>
                <mxCell id="47" value="更规范、更安全" style="text;html=1;strokeColor=none;fillColor=none;align=center;verticalAlign=middle;whiteSpace=wrap;rounded=0;fontSize=12;" parent="1" vertex="1">
                    <mxGeometry x="690" y="750" width="100" height="30" as="geometry"/>
                </mxCell>
                <mxCell id="49" value="如果每个接口的方法都写调用次数 + 1，会比较麻烦&lt;br&gt;接口开发者需要自己去添加统计代码" style="text;html=1;strokeColor=none;fillColor=none;align=center;verticalAlign=middle;whiteSpace=wrap;rounded=0;" parent="1" vertex="1">
                    <mxGeometry y="850" width="290" height="70" as="geometry"/>
                </mxCell>
                <mxCell id="ZBnpUKuvXArXQahsg_qm-50" value="接口C" style="whiteSpace=wrap;html=1;aspect=fixed;" parent="1" vertex="1">
                    <mxGeometry x="20" y="1080" width="60" height="60" as="geometry"/>
                </mxCell>
                <mxCell id="ZBnpUKuvXArXQahsg_qm-51" value="" style="shape=flexArrow;endArrow=classic;html=1;" parent="1" edge="1">
                    <mxGeometry width="50" height="50" relative="1" as="geometry">
                        <mxPoint x="80" y="1039.58" as="sourcePoint"/>
                        <mxPoint x="160" y="1040" as="targetPoint"/>
                    </mxGeometry>
                </mxCell>
                <mxCell id="ZBnpUKuvXArXQahsg_qm-54" value="接口C" style="whiteSpace=wrap;html=1;aspect=fixed;" parent="1" vertex="1">
                    <mxGeometry x="159" y="1080" width="60" height="60" as="geometry"/>
                </mxCell>
                <mxCell id="ZBnpUKuvXArXQahsg_qm-55" value="接口A" style="whiteSpace=wrap;html=1;aspect=fixed;" parent="1" vertex="1">
                    <mxGeometry x="159" y="940" width="60" height="60" as="geometry"/>
                </mxCell>
                <mxCell id="ZBnpUKuvXArXQahsg_qm-56" value="接口B" style="whiteSpace=wrap;html=1;aspect=fixed;" parent="1" vertex="1">
                    <mxGeometry x="159" y="1010" width="60" height="60" as="geometry"/>
                </mxCell>
                <mxCell id="ZBnpUKuvXArXQahsg_qm-57" value="统计次数" style="rounded=0;whiteSpace=wrap;html=1;rotation=0;" parent="1" vertex="1">
                    <mxGeometry x="230" y="940" width="60" height="200" as="geometry"/>
                </mxCell>
                <mxCell id="ZBnpUKuvXArXQahsg_qm-58" value="aop 切面&lt;br&gt;FastAPI 中间件" style="rounded=0;whiteSpace=wrap;html=1;" parent="1" vertex="1">
                    <mxGeometry x="159" y="1150" width="131" height="60" as="geometry"/>
                </mxCell>
                <mxCell id="RoAYnVofiYMvQ8LHtAUV-69" value="接口A" style="whiteSpace=wrap;html=1;aspect=fixed;" parent="1" vertex="1">
                    <mxGeometry x="20" y="940" width="60" height="60" as="geometry"/>
                </mxCell>
                <mxCell id="RoAYnVofiYMvQ8LHtAUV-70" value="接口B" style="whiteSpace=wrap;html=1;aspect=fixed;" parent="1" vertex="1">
                    <mxGeometry x="20" y="1010" width="60" height="60" as="geometry"/>
                </mxCell>
                <mxCell id="RoAYnVofiYMvQ8LHtAUV-75" value="网关&lt;br&gt;统计次数" style="rounded=0;whiteSpace=wrap;html=1;rotation=0;" parent="1" vertex="1">
                    <mxGeometry x="370" y="900" width="60" height="390" as="geometry"/>
                </mxCell>
                <mxCell id="RoAYnVofiYMvQ8LHtAUV-76" value="" style="shape=flexArrow;endArrow=classic;html=1;" parent="1" edge="1">
                    <mxGeometry width="50" height="50" relative="1" as="geometry">
                        <mxPoint x="290" y="1039.58" as="sourcePoint"/>
                        <mxPoint x="370" y="1040" as="targetPoint"/>
                    </mxGeometry>
                </mxCell>
                <mxCell id="RoAYnVofiYMvQ8LHtAUV-77" value="接口A" style="whiteSpace=wrap;html=1;aspect=fixed;" parent="1" vertex="1">
                    <mxGeometry x="480" y="940" width="60" height="60" as="geometry"/>
                </mxCell>
                <mxCell id="RoAYnVofiYMvQ8LHtAUV-78" value="接口B" style="whiteSpace=wrap;html=1;aspect=fixed;" parent="1" vertex="1">
                    <mxGeometry x="480" y="1010" width="60" height="60" as="geometry"/>
                </mxCell>
                <mxCell id="RoAYnVofiYMvQ8LHtAUV-80" value="项目 A" style="text;html=1;strokeColor=none;fillColor=none;align=center;verticalAlign=middle;whiteSpace=wrap;rounded=0;" parent="1" vertex="1">
                    <mxGeometry x="480" y="910" width="60" height="30" as="geometry"/>
                </mxCell>
                <mxCell id="RoAYnVofiYMvQ8LHtAUV-81" value="接口C" style="whiteSpace=wrap;html=1;aspect=fixed;" parent="1" vertex="1">
                    <mxGeometry x="480" y="1140" width="60" height="60" as="geometry"/>
                </mxCell>
                <mxCell id="RoAYnVofiYMvQ8LHtAUV-82" value="接口D" style="whiteSpace=wrap;html=1;aspect=fixed;" parent="1" vertex="1">
                    <mxGeometry x="480" y="1210" width="60" height="60" as="geometry"/>
                </mxCell>
                <mxCell id="RoAYnVofiYMvQ8LHtAUV-83" value="项目 B" style="text;html=1;strokeColor=none;fillColor=none;align=center;verticalAlign=middle;whiteSpace=wrap;rounded=0;" parent="1" vertex="1">
                    <mxGeometry x="480" y="1100" width="60" height="30" as="geometry"/>
                </mxCell>
                <mxCell id="50" value="&lt;h1&gt;网关&lt;/h1&gt;&lt;p&gt;用户统一向网关发送请求，由网关根据请求转发到对应的接口。&lt;/p&gt;&lt;p&gt;用户不用关心像哪个项目的接口发送请求&lt;/p&gt;" style="text;html=1;strokeColor=none;fillColor=none;spacing=5;spacingTop=-20;whiteSpace=wrap;overflow=hidden;rounded=0;" parent="1" vertex="1">
                    <mxGeometry x="610" y="910" width="190" height="120" as="geometry"/>
                </mxCell>
                <mxCell id="52" value="&lt;font style=&quot;font-size: 20px;&quot;&gt;RPC 流程&lt;/font&gt;" style="rounded=1;whiteSpace=wrap;html=1;fontSize=10;" parent="1" vertex="1">
                    <mxGeometry x="190" y="1340" width="365" height="60" as="geometry"/>
                </mxCell>
                <mxCell id="53" value="&lt;span style=&quot;font-size: 12px;&quot;&gt;提供者&lt;br&gt;Privider&lt;br&gt;&lt;/span&gt;" style="whiteSpace=wrap;html=1;aspect=fixed;fontSize=20;" parent="1" vertex="1">
                    <mxGeometry x="69" y="1480" width="90" height="90" as="geometry"/>
                </mxCell>
                <mxCell id="54" value="&lt;span style=&quot;font-size: 12px;&quot;&gt;注册中心&lt;br&gt;存储&lt;br&gt;&lt;/span&gt;" style="whiteSpace=wrap;html=1;aspect=fixed;fontSize=20;" parent="1" vertex="1">
                    <mxGeometry x="320" y="1480" width="90" height="90" as="geometry"/>
                </mxCell>
                <mxCell id="55" value="&lt;span style=&quot;font-size: 12px;&quot;&gt;消费者&lt;br&gt;Consumer&lt;br&gt;&lt;/span&gt;" style="whiteSpace=wrap;html=1;aspect=fixed;fontSize=20;" parent="1" vertex="1">
                    <mxGeometry x="560" y="1480" width="90" height="90" as="geometry"/>
                </mxCell>
                <mxCell id="58" value="返回 Privider 相关信息" style="text;html=1;strokeColor=none;fillColor=none;align=center;verticalAlign=middle;whiteSpace=wrap;rounded=0;" parent="1" vertex="1">
                    <mxGeometry x="420" y="1470" width="130" height="30" as="geometry"/>
                </mxCell>
                <mxCell id="59" value="" style="endArrow=classic;html=1;exitX=1;exitY=0.25;exitDx=0;exitDy=0;entryX=0;entryY=0.25;entryDx=0;entryDy=0;" parent="1" source="54" target="55" edge="1">
                    <mxGeometry width="50" height="50" relative="1" as="geometry">
                        <mxPoint x="390" y="1560" as="sourcePoint"/>
                        <mxPoint x="530" y="1520" as="targetPoint"/>
                    </mxGeometry>
                </mxCell>
                <mxCell id="62" value="" style="endArrow=classic;html=1;entryX=1;entryY=0.75;entryDx=0;entryDy=0;exitX=0;exitY=0.75;exitDx=0;exitDy=0;" parent="1" source="55" target="54" edge="1">
                    <mxGeometry width="50" height="50" relative="1" as="geometry">
                        <mxPoint x="450" y="1580" as="sourcePoint"/>
                        <mxPoint x="500" y="1530" as="targetPoint"/>
                    </mxGeometry>
                </mxCell>
                <mxCell id="63" value="请求获取 Privider 信息" style="text;html=1;strokeColor=none;fillColor=none;align=center;verticalAlign=middle;whiteSpace=wrap;rounded=0;" parent="1" vertex="1">
                    <mxGeometry x="414" y="1560" width="130" height="30" as="geometry"/>
                </mxCell>
                <mxCell id="64" value="" style="endArrow=classic;html=1;exitX=1;exitY=0.5;exitDx=0;exitDy=0;entryX=0;entryY=0.5;entryDx=0;entryDy=0;" parent="1" source="53" target="54" edge="1">
                    <mxGeometry width="50" height="50" relative="1" as="geometry">
                        <mxPoint x="390" y="1550" as="sourcePoint"/>
                        <mxPoint x="440" y="1500" as="targetPoint"/>
                    </mxGeometry>
                </mxCell>
                <mxCell id="65" value="向服务中心存储自己的信息" style="text;html=1;strokeColor=none;fillColor=none;align=center;verticalAlign=middle;whiteSpace=wrap;rounded=0;" parent="1" vertex="1">
                    <mxGeometry x="159" y="1490" width="151" height="30" as="geometry"/>
                </mxCell>
                <mxCell id="66" value="" style="endArrow=classic;html=1;exitX=0.5;exitY=0;exitDx=0;exitDy=0;entryX=0.5;entryY=0;entryDx=0;entryDy=0;" parent="1" source="55" target="53" edge="1">
                    <mxGeometry width="50" height="50" relative="1" as="geometry">
                        <mxPoint x="390" y="1550" as="sourcePoint"/>
                        <mxPoint x="100" y="1440" as="targetPoint"/>
                        <Array as="points">
                            <mxPoint x="605" y="1440"/>
                            <mxPoint x="114" y="1440"/>
                        </Array>
                    </mxGeometry>
                </mxCell>
                <mxCell id="67" value="获取信息后 直接调用" style="text;html=1;strokeColor=none;fillColor=none;align=center;verticalAlign=middle;whiteSpace=wrap;rounded=0;" parent="1" vertex="1">
                    <mxGeometry x="300" y="1410" width="130" height="30" as="geometry"/>
                </mxCell>
                <mxCell id="68" value="&lt;span style=&quot;font-size: 20px;&quot;&gt;基于 Python - FastAPI 框架的《乐接-API开放平台》整体设计&lt;/span&gt;" style="rounded=1;whiteSpace=wrap;html=1;fontSize=10;" parent="1" vertex="1">
                    <mxGeometry x="100" y="1720" width="561" height="60" as="geometry"/>
                </mxCell>
                <mxCell id="71" value="用户" style="shape=umlActor;verticalLabelPosition=bottom;verticalAlign=top;html=1;outlineConnect=0;" parent="1" vertex="1">
                    <mxGeometry x="55" y="1820" width="60" height="100" as="geometry"/>
                </mxCell>
                <mxCell id="77" value="lejie-backend" style="rounded=1;whiteSpace=wrap;html=1;" parent="1" vertex="1">
                    <mxGeometry x="240" y="1840" width="120" height="80" as="geometry"/>
                </mxCell>
                <mxCell id="80" value="" style="endArrow=classic;html=1;entryX=0;entryY=0.5;entryDx=0;entryDy=0;" parent="1" target="77" edge="1">
                    <mxGeometry width="50" height="50" relative="1" as="geometry">
                        <mxPoint x="120" y="1880" as="sourcePoint"/>
                        <mxPoint x="195" y="1820" as="targetPoint"/>
                    </mxGeometry>
                </mxCell>
                <mxCell id="82" value="客户端发送请求" style="text;html=1;strokeColor=none;fillColor=none;align=center;verticalAlign=middle;whiteSpace=wrap;rounded=0;" parent="1" vertex="1">
                    <mxGeometry x="130" y="1840" width="100" height="30" as="geometry"/>
                </mxCell>
                <mxCell id="83" value="" style="endArrow=classic;html=1;" parent="1" edge="1">
                    <mxGeometry width="50" height="50" relative="1" as="geometry">
                        <mxPoint x="360" y="1880" as="sourcePoint"/>
                        <mxPoint x="480" y="1880" as="targetPoint"/>
                    </mxGeometry>
                </mxCell>
                <mxCell id="84" value="SDK 调用" style="text;html=1;strokeColor=none;fillColor=none;align=center;verticalAlign=middle;whiteSpace=wrap;rounded=0;" parent="1" vertex="1">
                    <mxGeometry x="375" y="1840" width="100" height="30" as="geometry"/>
                </mxCell>
                <mxCell id="86" value="" style="whiteSpace=wrap;html=1;aspect=fixed;" parent="1" vertex="1">
                    <mxGeometry x="475" y="1800" width="265" height="265" as="geometry"/>
                </mxCell>
                <mxCell id="85" value="lejie-interface" style="rounded=1;whiteSpace=wrap;html=1;" parent="1" vertex="1">
                    <mxGeometry x="530" y="1810" width="120" height="80" as="geometry"/>
                </mxCell>
                <mxCell id="87" value="FastAPI 中间件负责校验请求、统计接口调用次数&lt;br&gt;涉及数据库相关的调用，使用RPC调用 lejie-common" style="text;html=1;strokeColor=none;fillColor=none;align=center;verticalAlign=middle;whiteSpace=wrap;rounded=0;" parent="1" vertex="1">
                    <mxGeometry x="480" y="1890" width="250" height="70" as="geometry"/>
                </mxCell>
                <mxCell id="88" value="lejie-common" style="rounded=1;whiteSpace=wrap;html=1;" parent="1" vertex="1">
                    <mxGeometry x="530" y="1970" width="120" height="80" as="geometry"/>
                </mxCell>
                <mxCell id="89" value="Client SDK 提供给开发者调用" style="rounded=0;whiteSpace=wrap;html=1;" vertex="1" parent="1">
                    <mxGeometry x="349" y="1940" width="120" height="60" as="geometry"/>
                </mxCell>
            </root>
        </mxGraphModel>
    </diagram>
</mxfile>